<svg width="18" height="16" viewBox="0 0 18 16" fill="none" xmlns="http://www.w3.org/2000/svg">
<path d="M10.6667 4.66671V3.00004C10.6667 2.55801 10.4911 2.13409 10.1785 1.82153C9.86595 1.50897 9.44203 1.33337 9 1.33337H3.16667C2.72464 1.33337 2.30072 1.50897 1.98816 1.82153C1.67559 2.13409 1.5 2.55801 1.5 3.00004V13C1.5 13.4421 1.67559 13.866 1.98816 14.1786C2.30072 14.4911 2.72464 14.6667 3.16667 14.6667H9C9.44203 14.6667 9.86595 14.4911 10.1785 14.1786C10.4911 13.866 10.6667 13.4421 10.6667 13V11.3334M4.83333 8.00004H16.5M16.5 8.00004L14 5.50004M16.5 8.00004L14 10.5" stroke="#344054" stroke-width="1.75" stroke-linecap="round" stroke-linejoin="round"/>
</svg>
