<svg width="16" height="16" viewBox="0 0 16 16" fill="none" xmlns="http://www.w3.org/2000/svg">
<path d="M14.6667 7.16658C14.4629 5.7001 13.7826 4.3413 12.7305 3.2995C11.6785 2.25769 10.3131 1.59068 8.84474 1.40121C7.37633 1.21174 5.88636 1.51032 4.60434 2.25096C3.32233 2.99159 2.31938 4.1332 1.75001 5.49992M1.33334 2.16658V5.49992H4.66668M1.33334 8.83329C1.53714 10.2998 2.21745 11.6586 3.26948 12.7004C4.3215 13.7422 5.68688 14.4092 7.15528 14.5987C8.62369 14.7881 10.1137 14.4896 11.3957 13.7489C12.6777 13.0083 13.6806 11.8667 14.25 10.5M14.6667 13.8333V10.5H11.3333" stroke="#667085" stroke-width="2" stroke-linecap="round" stroke-linejoin="round"/>
</svg>
